<mxfile host="app.diagrams.net" modified="2023-04-11T14:57:33.682Z" agent="Mozilla/5.0 (X11; Linux x86_64) AppleWebKit/537.36 (KHTML, like Gecko) Chrome/108.0.0.0 Safari/537.36" etag="HwYLuz9ovXGVK1RrsVGT" version="21.1.5" type="github">
  <diagram name="Página-1" id="vv6PEIaUgh8dFN0z1C_Y">
    <mxGraphModel dx="1122" dy="666" grid="1" gridSize="10" guides="1" tooltips="1" connect="1" arrows="1" fold="1" page="1" pageScale="1" pageWidth="827" pageHeight="1169" math="0" shadow="0">
      <root>
        <mxCell id="0" />
        <mxCell id="1" parent="0" />
        <mxCell id="3E7tgCCNNJo6zt93SH42-128" value="CLIENTE" style="rounded=0;whiteSpace=wrap;html=1;" vertex="1" parent="1">
          <mxGeometry x="524" y="535" width="120" height="60" as="geometry" />
        </mxCell>
        <mxCell id="3E7tgCCNNJo6zt93SH42-129" value="" style="triangle;whiteSpace=wrap;html=1;rotation=-90;" vertex="1" parent="1">
          <mxGeometry x="566.5" y="595" width="35" height="85" as="geometry" />
        </mxCell>
        <mxCell id="3E7tgCCNNJo6zt93SH42-130" value="" style="endArrow=none;html=1;rounded=0;entryX=0;entryY=0.25;entryDx=0;entryDy=0;exitX=0.5;exitY=0;exitDx=0;exitDy=0;" edge="1" parent="1" source="3E7tgCCNNJo6zt93SH42-131" target="3E7tgCCNNJo6zt93SH42-129">
          <mxGeometry width="50" height="50" relative="1" as="geometry">
            <mxPoint x="534" y="645" as="sourcePoint" />
            <mxPoint x="584" y="595" as="targetPoint" />
          </mxGeometry>
        </mxCell>
        <mxCell id="3E7tgCCNNJo6zt93SH42-131" value="PESSOA FÍSICA" style="rounded=0;whiteSpace=wrap;html=1;" vertex="1" parent="1">
          <mxGeometry x="444" y="675" width="120" height="60" as="geometry" />
        </mxCell>
        <mxCell id="3E7tgCCNNJo6zt93SH42-132" value="PESSOA JURÍDICA" style="rounded=0;whiteSpace=wrap;html=1;" vertex="1" parent="1">
          <mxGeometry x="604" y="675" width="120" height="60" as="geometry" />
        </mxCell>
        <mxCell id="3E7tgCCNNJo6zt93SH42-133" value="" style="endArrow=none;html=1;rounded=0;exitX=0.5;exitY=0;exitDx=0;exitDy=0;entryX=0;entryY=0.75;entryDx=0;entryDy=0;" edge="1" parent="1" source="3E7tgCCNNJo6zt93SH42-132" target="3E7tgCCNNJo6zt93SH42-129">
          <mxGeometry width="50" height="50" relative="1" as="geometry">
            <mxPoint x="544" y="655" as="sourcePoint" />
            <mxPoint x="644" y="605" as="targetPoint" />
          </mxGeometry>
        </mxCell>
        <mxCell id="3E7tgCCNNJo6zt93SH42-134" value="" style="endArrow=none;html=1;rounded=0;entryX=0.5;entryY=1;entryDx=0;entryDy=0;exitX=1;exitY=0.5;exitDx=0;exitDy=0;" edge="1" parent="1" source="3E7tgCCNNJo6zt93SH42-129" target="3E7tgCCNNJo6zt93SH42-128">
          <mxGeometry width="50" height="50" relative="1" as="geometry">
            <mxPoint x="634" y="605" as="sourcePoint" />
            <mxPoint x="684" y="555" as="targetPoint" />
          </mxGeometry>
        </mxCell>
        <mxCell id="3E7tgCCNNJo6zt93SH42-136" value="EMPRESA" style="rounded=0;whiteSpace=wrap;html=1;" vertex="1" parent="1">
          <mxGeometry x="524" y="285" width="120" height="60" as="geometry" />
        </mxCell>
        <mxCell id="3E7tgCCNNJo6zt93SH42-137" value="" style="endArrow=none;html=1;rounded=0;entryX=0.5;entryY=1;entryDx=0;entryDy=0;exitX=0.5;exitY=0;exitDx=0;exitDy=0;" edge="1" parent="1" source="3E7tgCCNNJo6zt93SH42-135" target="3E7tgCCNNJo6zt93SH42-136">
          <mxGeometry width="50" height="50" relative="1" as="geometry">
            <mxPoint x="530" y="385" as="sourcePoint" />
            <mxPoint x="580" y="335" as="targetPoint" />
          </mxGeometry>
        </mxCell>
        <mxCell id="3E7tgCCNNJo6zt93SH42-138" value="" style="endArrow=none;html=1;rounded=0;entryX=0.5;entryY=1;entryDx=0;entryDy=0;exitX=0.5;exitY=0;exitDx=0;exitDy=0;" edge="1" parent="1" source="3E7tgCCNNJo6zt93SH42-128" target="3E7tgCCNNJo6zt93SH42-135">
          <mxGeometry width="50" height="50" relative="1" as="geometry">
            <mxPoint x="582" y="515" as="sourcePoint" />
            <mxPoint x="584" y="345" as="targetPoint" />
          </mxGeometry>
        </mxCell>
        <mxCell id="3E7tgCCNNJo6zt93SH42-135" value="atende" style="rhombus;whiteSpace=wrap;html=1;" vertex="1" parent="1">
          <mxGeometry x="544" y="385" width="80" height="80" as="geometry" />
        </mxCell>
        <mxCell id="3E7tgCCNNJo6zt93SH42-139" value="VEÍCULO" style="rounded=0;whiteSpace=wrap;html=1;" vertex="1" parent="1">
          <mxGeometry x="250" y="535" width="120" height="60" as="geometry" />
        </mxCell>
        <mxCell id="3E7tgCCNNJo6zt93SH42-140" value="FILIAL" style="rounded=0;whiteSpace=wrap;html=1;" vertex="1" parent="1">
          <mxGeometry x="250" y="285" width="120" height="60" as="geometry" />
        </mxCell>
        <mxCell id="3E7tgCCNNJo6zt93SH42-141" value="" style="endArrow=none;html=1;rounded=0;exitX=0;exitY=0.5;exitDx=0;exitDy=0;entryX=1;entryY=0.5;entryDx=0;entryDy=0;" edge="1" parent="1" source="3E7tgCCNNJo6zt93SH42-136" target="3E7tgCCNNJo6zt93SH42-142">
          <mxGeometry width="50" height="50" relative="1" as="geometry">
            <mxPoint x="620" y="515" as="sourcePoint" />
            <mxPoint x="670" y="465" as="targetPoint" />
          </mxGeometry>
        </mxCell>
        <mxCell id="3E7tgCCNNJo6zt93SH42-142" value="tem" style="rhombus;whiteSpace=wrap;html=1;" vertex="1" parent="1">
          <mxGeometry x="410" y="275" width="80" height="80" as="geometry" />
        </mxCell>
        <mxCell id="3E7tgCCNNJo6zt93SH42-143" value="" style="endArrow=none;html=1;rounded=0;entryX=1;entryY=0.5;entryDx=0;entryDy=0;exitX=0;exitY=0.5;exitDx=0;exitDy=0;" edge="1" parent="1" source="3E7tgCCNNJo6zt93SH42-142" target="3E7tgCCNNJo6zt93SH42-140">
          <mxGeometry width="50" height="50" relative="1" as="geometry">
            <mxPoint x="620" y="515" as="sourcePoint" />
            <mxPoint x="670" y="465" as="targetPoint" />
          </mxGeometry>
        </mxCell>
        <mxCell id="3E7tgCCNNJo6zt93SH42-144" value="possui" style="rhombus;whiteSpace=wrap;html=1;" vertex="1" parent="1">
          <mxGeometry x="270" y="405" width="80" height="80" as="geometry" />
        </mxCell>
        <mxCell id="3E7tgCCNNJo6zt93SH42-145" value="" style="endArrow=none;html=1;rounded=0;entryX=0.5;entryY=1;entryDx=0;entryDy=0;exitX=0.5;exitY=0;exitDx=0;exitDy=0;" edge="1" parent="1" source="3E7tgCCNNJo6zt93SH42-139" target="3E7tgCCNNJo6zt93SH42-144">
          <mxGeometry width="50" height="50" relative="1" as="geometry">
            <mxPoint x="620" y="515" as="sourcePoint" />
            <mxPoint x="670" y="465" as="targetPoint" />
          </mxGeometry>
        </mxCell>
        <mxCell id="3E7tgCCNNJo6zt93SH42-146" value="" style="endArrow=none;html=1;rounded=0;entryX=0.5;entryY=1;entryDx=0;entryDy=0;exitX=0.5;exitY=0;exitDx=0;exitDy=0;" edge="1" parent="1" source="3E7tgCCNNJo6zt93SH42-144" target="3E7tgCCNNJo6zt93SH42-140">
          <mxGeometry width="50" height="50" relative="1" as="geometry">
            <mxPoint x="620" y="515" as="sourcePoint" />
            <mxPoint x="670" y="465" as="targetPoint" />
          </mxGeometry>
        </mxCell>
        <mxCell id="3E7tgCCNNJo6zt93SH42-147" value="reserva" style="rhombus;whiteSpace=wrap;html=1;" vertex="1" parent="1">
          <mxGeometry x="416.5" y="525" width="80" height="80" as="geometry" />
        </mxCell>
        <mxCell id="3E7tgCCNNJo6zt93SH42-148" value="" style="endArrow=none;html=1;rounded=0;entryX=0;entryY=0.5;entryDx=0;entryDy=0;exitX=1;exitY=0.5;exitDx=0;exitDy=0;" edge="1" parent="1" source="3E7tgCCNNJo6zt93SH42-147" target="3E7tgCCNNJo6zt93SH42-128">
          <mxGeometry width="50" height="50" relative="1" as="geometry">
            <mxPoint x="440" y="525" as="sourcePoint" />
            <mxPoint x="490" y="475" as="targetPoint" />
          </mxGeometry>
        </mxCell>
        <mxCell id="3E7tgCCNNJo6zt93SH42-149" value="" style="endArrow=none;html=1;rounded=0;entryX=1;entryY=0.5;entryDx=0;entryDy=0;exitX=0;exitY=0.5;exitDx=0;exitDy=0;" edge="1" parent="1" source="3E7tgCCNNJo6zt93SH42-147" target="3E7tgCCNNJo6zt93SH42-139">
          <mxGeometry width="50" height="50" relative="1" as="geometry">
            <mxPoint x="440" y="525" as="sourcePoint" />
            <mxPoint x="490" y="475" as="targetPoint" />
          </mxGeometry>
        </mxCell>
        <mxCell id="3E7tgCCNNJo6zt93SH42-150" value="" style="triangle;whiteSpace=wrap;html=1;rotation=-90;" vertex="1" parent="1">
          <mxGeometry x="292.5" y="730" width="35" height="85" as="geometry" />
        </mxCell>
        <mxCell id="3E7tgCCNNJo6zt93SH42-151" value="" style="endArrow=none;html=1;rounded=0;entryX=0.5;entryY=1;entryDx=0;entryDy=0;exitX=1;exitY=0.5;exitDx=0;exitDy=0;" edge="1" parent="1" source="3E7tgCCNNJo6zt93SH42-150" target="3E7tgCCNNJo6zt93SH42-139">
          <mxGeometry width="50" height="50" relative="1" as="geometry">
            <mxPoint x="310" y="665" as="sourcePoint" />
            <mxPoint x="360" y="615" as="targetPoint" />
          </mxGeometry>
        </mxCell>
        <mxCell id="3E7tgCCNNJo6zt93SH42-152" value="CAMIONETAS DE CARGA" style="rounded=0;whiteSpace=wrap;html=1;" vertex="1" parent="1">
          <mxGeometry x="250" y="835" width="120" height="60" as="geometry" />
        </mxCell>
        <mxCell id="3E7tgCCNNJo6zt93SH42-153" value="CAMIONETAS DE PASSAGEIROS" style="rounded=0;whiteSpace=wrap;html=1;" vertex="1" parent="1">
          <mxGeometry x="396.5" y="835" width="120" height="60" as="geometry" />
        </mxCell>
        <mxCell id="3E7tgCCNNJo6zt93SH42-154" value="AUTOMÓVEIS" style="rounded=0;whiteSpace=wrap;html=1;" vertex="1" parent="1">
          <mxGeometry x="103" y="835" width="120" height="60" as="geometry" />
        </mxCell>
        <mxCell id="3E7tgCCNNJo6zt93SH42-155" value="" style="endArrow=none;html=1;rounded=0;entryX=0;entryY=0.5;entryDx=0;entryDy=0;exitX=0.5;exitY=0;exitDx=0;exitDy=0;" edge="1" parent="1" source="3E7tgCCNNJo6zt93SH42-152" target="3E7tgCCNNJo6zt93SH42-150">
          <mxGeometry width="50" height="50" relative="1" as="geometry">
            <mxPoint x="303" y="855" as="sourcePoint" />
            <mxPoint x="353" y="805" as="targetPoint" />
          </mxGeometry>
        </mxCell>
        <mxCell id="3E7tgCCNNJo6zt93SH42-156" value="" style="endArrow=none;html=1;rounded=0;entryX=0;entryY=0.25;entryDx=0;entryDy=0;exitX=0.5;exitY=0;exitDx=0;exitDy=0;" edge="1" parent="1" source="3E7tgCCNNJo6zt93SH42-154" target="3E7tgCCNNJo6zt93SH42-150">
          <mxGeometry width="50" height="50" relative="1" as="geometry">
            <mxPoint x="303" y="855" as="sourcePoint" />
            <mxPoint x="353" y="805" as="targetPoint" />
          </mxGeometry>
        </mxCell>
        <mxCell id="3E7tgCCNNJo6zt93SH42-157" value="" style="endArrow=none;html=1;rounded=0;entryX=0;entryY=0.75;entryDx=0;entryDy=0;exitX=0.5;exitY=0;exitDx=0;exitDy=0;" edge="1" parent="1" source="3E7tgCCNNJo6zt93SH42-153" target="3E7tgCCNNJo6zt93SH42-150">
          <mxGeometry width="50" height="50" relative="1" as="geometry">
            <mxPoint x="303" y="855" as="sourcePoint" />
            <mxPoint x="353" y="805" as="targetPoint" />
          </mxGeometry>
        </mxCell>
        <mxCell id="3E7tgCCNNJo6zt93SH42-159" value="MOTORISTA" style="rounded=0;whiteSpace=wrap;html=1;" vertex="1" parent="1">
          <mxGeometry x="40" y="415" width="120" height="60" as="geometry" />
        </mxCell>
        <mxCell id="3E7tgCCNNJo6zt93SH42-160" value="dirige" style="rhombus;whiteSpace=wrap;html=1;" vertex="1" parent="1">
          <mxGeometry x="120" y="525" width="80" height="80" as="geometry" />
        </mxCell>
        <mxCell id="3E7tgCCNNJo6zt93SH42-161" value="" style="rhombus;whiteSpace=wrap;html=1;" vertex="1" parent="1">
          <mxGeometry x="120" y="275" width="80" height="80" as="geometry" />
        </mxCell>
        <mxCell id="3E7tgCCNNJo6zt93SH42-162" value="" style="endArrow=none;html=1;rounded=0;entryX=0;entryY=0.5;entryDx=0;entryDy=0;exitX=1;exitY=0.5;exitDx=0;exitDy=0;" edge="1" parent="1" source="3E7tgCCNNJo6zt93SH42-160" target="3E7tgCCNNJo6zt93SH42-139">
          <mxGeometry width="50" height="50" relative="1" as="geometry">
            <mxPoint x="400" y="590" as="sourcePoint" />
            <mxPoint x="450" y="540" as="targetPoint" />
          </mxGeometry>
        </mxCell>
        <mxCell id="3E7tgCCNNJo6zt93SH42-163" value="" style="endArrow=none;html=1;rounded=0;entryX=0.5;entryY=1;entryDx=0;entryDy=0;exitX=0;exitY=0.5;exitDx=0;exitDy=0;" edge="1" parent="1" source="3E7tgCCNNJo6zt93SH42-160" target="3E7tgCCNNJo6zt93SH42-159">
          <mxGeometry width="50" height="50" relative="1" as="geometry">
            <mxPoint x="400" y="590" as="sourcePoint" />
            <mxPoint x="450" y="540" as="targetPoint" />
          </mxGeometry>
        </mxCell>
        <mxCell id="3E7tgCCNNJo6zt93SH42-164" value="" style="endArrow=none;html=1;rounded=0;entryX=0.5;entryY=0;entryDx=0;entryDy=0;exitX=0;exitY=1;exitDx=0;exitDy=0;" edge="1" parent="1" source="3E7tgCCNNJo6zt93SH42-161" target="3E7tgCCNNJo6zt93SH42-159">
          <mxGeometry width="50" height="50" relative="1" as="geometry">
            <mxPoint x="400" y="590" as="sourcePoint" />
            <mxPoint x="450" y="540" as="targetPoint" />
          </mxGeometry>
        </mxCell>
        <mxCell id="3E7tgCCNNJo6zt93SH42-165" value="" style="endArrow=none;html=1;rounded=0;entryX=1;entryY=0.5;entryDx=0;entryDy=0;exitX=0;exitY=0.5;exitDx=0;exitDy=0;" edge="1" parent="1" source="3E7tgCCNNJo6zt93SH42-140" target="3E7tgCCNNJo6zt93SH42-161">
          <mxGeometry width="50" height="50" relative="1" as="geometry">
            <mxPoint x="240" y="310" as="sourcePoint" />
            <mxPoint x="450" y="540" as="targetPoint" />
          </mxGeometry>
        </mxCell>
      </root>
    </mxGraphModel>
  </diagram>
</mxfile>
